inDegrees=yes
name=ik_MT_2026-09-08_17h41_01210270-000-000_orientations
DataType=double
version=3
OpenSimVersion=4.5
endheader
time	pelvis_tilt	pelvis_list	pelvis_rotation	pelvis_tx	pelvis_ty	pelvis_tz	hip_flexion_r	hip_adduction_r	hip_rotation_r	knee_angle_r	knee_angle_r_beta	ankle_angle_r	subtalar_angle_r	mtp_angle_r	hip_flexion_l	hip_adduction_l	hip_rotation_l	knee_angle_l	knee_angle_l_beta	ankle_angle_l	subtalar_angle_l	mtp_angle_l	lumbar_extension	lumbar_bending	lumbar_rotation	arm_flex_r	arm_add_r	arm_rot_r	elbow_flex_r	pro_sup_r	wrist_flex_r	wrist_dev_r	arm_flex_l	arm_add_l	arm_rot_l	elbow_flex_l	pro_sup_l	wrist_flex_l	wrist_dev_l
42.675	3.340166001498768	-2.317868845807402	-735.1063517487979	0	0.9399999999999999	0	-5.920027030972441	8.020236237256084	-8.323975521308308	-6.238218318990961	-0.1088774491246182	-1.632494677615203	0	0	30.9287719098568	-4.879079689028694	7.842212938866911	56.99021822298611	0.9946669494211795	17.97402259450369	0	0	-3.68127826387111	3.877984143050972	0.7096431551190555	16.03145115877627	-15.74889339273898	26.48483490430984	6.815239438465889	45.0000002553401	0	0	-8.405589610206464	-4.6892946997546	-16.36689252327346	0.09369712254822594	45.0000002553401	0	0
42.7	3.183227897439172	-2.132100318917681	-736.4291869427731	0	0.9399999999999999	0	-6.483335272125465	7.88718645222721	-7.779668622931623	-5.822285845952859	-0.1016180580041408	-0.9020994693626189	0	0	30.85741160368014	-5.11484058131731	6.69147286552629	49.30997604970919	0.8606214361469725	17.65703781424542	0	0	-3.972220305221197	3.607951215993269	1.218448929368077	18.15423671898189	-15.7913648752895	28.26396981090085	7.070462330830358	45.0000002553401	0	0	-8.118151581528346	-4.432440058769402	-17.08291236660173	0.119479470829257	45.0000002553401	0	0
42.725	3.045342350274074	-2.082046235655867	-737.8512971450072	0	0.9399999999999999	0	-7.16107242041421	7.818462845011827	-6.899026737686392	-5.409961595781259	-0.09442164225282954	-0.0782057382621984	0	0	30.16803578192692	-4.277425335690602	5.754308242385307	40.51478798442331	0.707116446075624	16.32334008965256	0	0	-4.192592944217878	3.377454383549067	1.807078922070443	19.98443432356287	-15.72249684570347	29.82731429362813	7.513959587523146	45.0000002553401	0	0	-7.977237003662002	-4.25903718602556	-17.69145536998916	0.1566680263825372	45.0000002553401	0	0
42.75	2.835432786974952	-2.115658175917897	-739.409666970186	0	0.9399999999999999	0	-7.80878664716476	7.826427122985253	-5.726303108413632	-4.947679996851468	-0.08635330628012079	0.7785774420073293	0	0	29.49022984648584	-3.071910649274315	5.561136945133775	31.78033825669161	0.5546715399767834	13.58520050913824	0	0	-4.387685997879596	3.228425630398892	2.437188362323127	21.58180461774091	-15.70017378158968	31.39810989866653	8.09108083909747	45.0000002553401	0	0	-7.821531686468107	-4.131927866682958	-18.32850210850892	0.2059187300169822	45.0000002553401	0	0
42.775	2.840296608139903	-2.247722388445197	-741.1379655893081	0	0.9399999999999999	0	-8.761884543551011	7.797160462512096	-4.36732911322953	-4.448914123304313	-0.07764819959013725	1.714213984784878	0	0	29.16516601497956	-1.322077557702535	6.801354830405256	24.03139635391549	0.4194269902275858	9.889806999933979	0	0	-4.86218773688321	3.100908247216184	3.113376742326578	23.00069612179753	-15.63614556320948	32.91193359633991	8.841765093662843	45.0000002553401	0	0	-7.611758150745618	-3.937316309118547	-18.96211723724202	0.2516576395178842	45.0000002553401	0	0
42.8	2.990330113081554	-2.401416229021774	-742.9824148198755	0	0.9399999999999999	0	-9.787880536441648	7.656389190963718	-2.940259518341138	-3.695695367522301	-0.06450205231396607	2.804244932966909	0	0	29.24974550270524	0.488072532622141	9.199547435422184	17.61527572205633	0.3074445599965045	5.157055894127945	0	0	-5.537576939672566	2.903463015443865	3.795884990185922	24.31816630870548	-15.61845577354455	34.42318152348767	9.604847793418253	45.0000002553401	0	0	-7.311875169380508	-3.806894081852715	-19.48440058173429	0.2815094855989457	45.0000002553401	0	0
42.825	3.321358499435886	-2.589487492185688	-744.9667389604597	0	0.9399999999999999	0	-10.86352627447881	7.382724999433584	-1.532906299980441	-2.581418028149969	-0.04505424396155663	4.041879072689076	0	0	29.14750238382566	2.311965667431993	11.17884952451826	12.36485373819413	0.2158074092590165	-0.5149415302528059	0	0	-6.322866017862543	2.617470775504398	4.514400941228991	25.32249767268284	-15.51519335636999	35.90193750348646	10.29205627013499	45.0000002553401	0	0	-6.985191366855657	-3.716235548808645	-19.8263864110416	0.2856726833019149	45.0000002553401	0	0
42.85	3.654284449769417	-2.834384304991531	-746.8851840941916	0	0.9399999999999999	0	-11.88539744923116	7.065459556624971	-0.4400931248394102	-1.161819120835399	-0.02027756897120357	5.51653285389837	0	0	29.05373798782868	3.386804089495869	11.97844035160586	8.634131638587073	0.1506940251439575	-6.065346112268037	0	0	-6.978023393227436	2.249792783365645	5.066170404871406	25.94562588994784	-15.2466318477272	37.27874128033143	10.79816436755628	45.0000002553401	0	0	-6.758193664325061	-3.778017129452314	-19.9433471768095	0.2780313463180334	45.0000002553401	0	0
42.875	3.924421678654535	-3.034573566607757	-748.6123916956129	0	0.9399999999999999	0	-12.8655816069569	6.659614600986217	0.5317505910836411	0.3367781571027337	0.00587788769024143	7.145771499740753	0	0	29.01843056545332	2.749904405383394	12.64915943616155	6.306059802696161	0.110061506384712	-12.19988603997982	0	0	-7.477335828494239	1.864296237476619	5.286127745583635	26.25399427369067	-14.90228682430842	38.57831621882263	11.14233665087915	45.0000002553401	0	0	-6.560513966794005	-3.919858298606963	-19.86748944487568	0.2562425583412027	45.0000002553401	0	0
42.9	4.721603053526309	-3.30115775248577	-749.8800504043942	0	0.9399999999999999	0	-14.24424520426693	6.037850151650814	1.281115109426671	2.095721470365965	0.03657723986262285	8.834563732406277	0	0	27.27090653824704	2.866756594325282	13.15705688696254	4.84129732123791	0.08449657832358312	-18.42259471001206	0	0	-8.339182794755589	1.269781525628751	5.135552373030133	26.15856416865696	-14.55148781081212	39.43998017300909	11.22052070289964	45.0000002553401	0	0	-6.373276351552579	-4.170252085336877	-19.47448459122241	0.23238583844379	45.0000002553401	0	0
42.925	5.345657741267035	-3.121063882961793	-750.8709015810408	0	0.9399999999999999	0	-15.32923691208111	5.044260562510492	1.864694999520117	3.764402804186625	0.065701223304364	10.47796722147782	0	0	24.6254407860295	4.185424261649231	14.49835723650286	4.071320484514347	0.07105794735866616	-21.57310179745036	0	0	-8.750871117904179	0.3675182554694614	4.788209844088012	25.55503758979212	-14.16968482120525	39.75120829017175	11.07014380630527	45.0000002553401	0	0	-6.156173196476987	-4.488110687163926	-18.92185461214722	0.2106631155791216	45.0000002553401	0	0
42.95	5.313351519335858	-2.593539676408037	-751.8213728425237	0	0.9399999999999999	0	-15.5353703645468	4.05756208853851	2.150336764943046	5.710384875378698	0.09966501763144435	12.24434220769197	0	0	24.16767451035793	4.42486254555543	14.88698819281195	5.900339000781704	0.102980342547473	-21.83147023814684	0	0	-8.329379639040159	-0.5624356356467102	4.344570862978108	24.4633757526036	-13.72066341219222	39.63873109407228	10.77347347492351	45.0000002553401	0	0	-5.842210553674819	-4.846986756393775	-18.44280447836425	0.1876999501033684	45.0000002553401	0	0
42.975	5.187899901700234	-2.307830468880488	-752.696928864329	0	0.9399999999999999	0	-15.43352335301143	3.187410305492141	2.2002884093254	8.208398314151086	0.1432635768970883	14.31744871047533	0	0	24.57091067959717	4.406167156702257	15.92945018878007	7.144735646516931	0.1246991612163262	-22.58302518398868	0	0	-7.619386755883497	-1.123190311836987	3.925907188287511	22.57404855173604	-13.34196455981811	38.99599759101174	10.18052187509292	45.0000002553401	0	0	-5.749783684769222	-5.013664141604601	-18.04849363927947	0.1667042234802766	45.0000002553401	0	0
43	6.491701168264796	-2.72951404974819	-753.2512932025554	0	0.9399999999999999	0	-16.40701095242683	1.908514048843181	1.525362846256412	11.57753600132461	0.202066122491293	15.10555345950315	0	0	23.02541509280029	4.480970844631969	15.84584531023401	7.817724940846461	0.1364450402330497	-23.04233621263154	0	0	-8.321795510941159	-1.824710034647167	3.261954968784755	20.15655007798711	-12.7868910997189	37.89281860737913	8.888845678502289	45.0000002553401	0	0	-5.706293337941248	-5.218286691760604	-17.77712644493354	0.1485616434086155	45.0000002553401	0	0
43.025	5.373715639494367	-1.055263710060862	-753.0170079666647	0	0.9399999999999999	0	-13.24328722710633	-0.0607101959881748	-0.627739069351877	16.42492495722852	0.2866690198966264	12.5836593231514	0	0	23.45001035789673	5.587648819231489	16.14338311987019	10.08163815221259	0.1759577797507869	-20.30007219741408	0	0	-6.07043478681589	-3.049134101977524	1.784992058726587	17.65080638804807	-11.82362108639696	36.02442657923726	6.900252295295663	45.0000002553401	0	0	-5.229851838245542	-5.62938921032469	-17.63858155031955	0.1339758163372449	45.0000002553401	0	0
43.05	2.805237019266127	1.041398258379308	-752.4173200119016	0	0.9399999999999999	0	-7.412216556180513	-2.760226480700129	-3.399609479647466	23.21935721037383	0.405254233517709	7.330458306796794	0	0	24.52183480902952	5.921878110281691	17.00698366560431	11.19176911905713	0.1953332202505721	-17.94505292717292	0	0	-2.770158905783465	-3.984650708699141	-0.1572201373071838	15.2246310350807	-10.46230309973065	33.92928965804012	4.582212811367951	45.0000002553401	0	0	-4.320082696958774	-6.014588469890944	-17.71568294427833	0.127019696417214	45.0000002553401	0	0
43.075	4.51613139634147	-0.1473738984412523	-752.5190600260086	0	0.9399999999999999	0	-6.129547364534276	-5.965494906422419	-5.175388818760214	30.9068864521161	0.5394269301294546	1.351712576060953	0	0	20.50630013203947	5.81659224676521	17.87089649456687	11.29538183541051	0.1971416032978736	-16.97861889329254	0	0	-5.023317347510552	-4.45599288018416	-1.63332026251486	13.00439641231885	-8.960005064049863	31.78139514035542	2.024527067689171	45.0000002553401	0	0	-3.26836207367353	-6.348975250955379	-17.72409698860764	0.1295254801878631	45.0000002553401	0	0
